<?xml version="1.0" encoding="UTF-8"?>
<svg width="48px" height="48px" viewBox="0 0 48 48" version="1.1" xmlns="http://www.w3.org/2000/svg" xmlns:xlink="http://www.w3.org/1999/xlink">
    <title>web logo</title>
    <g id="web-logo" stroke="none" stroke-width="1" fill="none" fill-rule="evenodd">
        <path d="M22.6229742,0.551734772 C23.3928282,-0.183911591 24.6075634,-0.183911591 25.3771521,0.551734772 L25.3771521,0.551734772 L47.3872302,21.5828149 C47.973773,22.1429423 48.1592065,23.0020335 47.8565175,23.7530113 C47.5535633,24.5042535 46.822706,24.9961823 46.0104066,24.9961823 L46.0104066,24.9961823 L43.5979144,24.9961823 L43.5979144,46.017482 C43.5979144,47.1126249 42.7070909,48 41.6082848,48 L41.6082848,48 L6.39184154,48 C5.29303545,48 4.40221197,47.1126249 4.40221197,46.017482 L4.40221197,46.017482 L4.40221197,24.9961823 L1.98971981,24.9961823 C1.17742038,24.9961823 0.446563115,24.5042535 0.143608854,23.7530113 C-0.159345408,23.0020335 0.0263533513,22.1429423 0.612630863,21.5828149 L0.612630863,21.5828149 Z M18.3952774,9 C18.3902227,9.05577769 18.3737069,9.10902805 18.3699453,9.16357146 C18.3623634,9.10902805 18.3483749,9.05577769 18.3433203,9 L18.3433203,9.32837719 C18.0618467,11.6979592 17.2314143,13.7758986 16.0612623,15.3175728 C14.5259411,16.4864945 12.4467158,17.3182227 10.0783761,17.6009315 L9.75,17.6009315 C9.80830483,17.6047519 9.85902767,17.6173886 9.9135709,17.6262637 C9.85902767,17.6326114 9.8083636,17.6440138 9.75,17.6490685 L10.0796103,17.6490685 C12.446657,17.9317773 14.5258823,18.7622125 16.0662582,19.9311342 C17.236469,21.4741014 18.0669013,23.5520408 18.3483161,25.9216228 L18.3483161,26.25 C18.3533708,26.1942223 18.3673592,26.140972 18.3749412,26.0851943 C18.3799959,26.1397377 18.3952186,26.1929293 18.4002733,26.25 L18.4002733,25.9216228 C18.6817469,23.5533338 19.5121792,21.4741014 20.6823312,19.9311342 C22.2240001,18.7622125 24.3019912,17.9317773 26.6702721,17.6515958 L27,17.6503615 C26.9416952,17.6453068 26.8909723,17.6326114 26.8364291,17.6262637 C26.8883862,17.6160956 26.9391091,17.6046932 26.9974727,17.6009315 L26.6652762,17.6009315 C24.2995226,17.3182227 22.2190043,16.4877875 20.6773353,15.3175728 C19.5071246,13.7771329 18.6766922,11.6979004 18.3952774,9.32837719 L18.3952774,9 Z" id="Combined-Shape" fill="#F48067" fill-rule="nonzero"></path>
    </g>
</svg>