<?xml version="1.0" encoding="UTF-8"?>
<svg width="180px" height="50px" viewBox="0 0 180 50" version="1.1" xmlns="http://www.w3.org/2000/svg" xmlns:xlink="http://www.w3.org/1999/xlink">
    <title>Artboard</title>
    <g id="Artboard" stroke="none" stroke-width="1" fill="none" fill-rule="evenodd">
        <path d="M23.5655982,0.574723721 C24.3675294,-0.191574574 25.6328786,-0.191574574 26.4345335,0.574723721 L26.4345335,0.574723721 L49.3616981,22.4820988 C49.9726802,23.0655649 50.1658401,23.9604515 49.8505391,24.7427201 C49.5349617,25.525264 48.7736521,26.0376899 47.9275068,26.0376899 L47.9275068,26.0376899 L45.4144942,26.0376899 L45.4144942,47.934877 C45.4144942,49.075651 44.486553,50 43.3419634,50 L43.3419634,50 L6.65816827,50 C5.51357859,50 4.58563747,49.075651 4.58563747,47.934877 L4.58563747,47.934877 L4.58563747,26.0376899 L2.0726248,26.0376899 C1.22647956,26.0376899 0.465169912,25.525264 0.149592556,24.7427201 C-0.1659848,23.9604515 0.0274514076,23.0655649 0.638157149,22.4820988 L0.638157149,22.4820988 Z M19.021159,9 C19.0158846,9.05820281 18.9986507,9.11376839 18.9947256,9.17068326 C18.986814,9.11376839 18.9722173,9.05820281 18.9669429,9 L18.9669429,9.34265446 C18.6732313,11.8152618 17.8066932,13.9835463 16.585665,15.5922498 C14.9835907,16.8119942 12.8139643,17.6798846 10.3426533,17.9748851 L10,17.9748851 C10.0608398,17.9788716 10.113768,17.9920577 10.1706827,18.0013186 C10.113768,18.0079423 10.0609011,18.0198405 10,18.0251149 L10.3439412,18.0251149 C12.8139029,18.3201154 14.9835294,19.1866565 16.5908781,20.4064009 C17.8119676,22.0164537 18.6785057,24.1847382 18.972156,26.6573455 L18.972156,27 C18.9774304,26.9417972 18.992027,26.8862316 18.9999387,26.8280288 C19.0052131,26.8849437 19.0210977,26.9404479 19.0263721,27 L19.0263721,26.6573455 C19.3200837,24.1860875 20.1866218,22.0164537 21.40765,20.4064009 C23.016348,19.1866565 25.1846865,18.3201154 27.6559361,18.0277521 L28,18.0264642 C27.9391602,18.0211897 27.886232,18.0079423 27.8293173,18.0013186 C27.8835335,17.9907084 27.9364616,17.9788103 27.9973628,17.9748851 L27.650723,17.9748851 C25.1821106,17.6798846 23.0111349,16.8133435 21.4024369,15.5922498 C20.1813474,13.9848343 19.3148093,11.8152005 19.021159,9.34265446 L19.021159,9 Z" id="Combined-Shape" fill="#F48067" fill-rule="nonzero"></path>
        <path d="M72.6746765,33 C70.1756007,33 68.271719,32.3486446 66.9630314,31.0459337 C65.6543438,29.7432229 65,27.9322289 65,25.6129518 C65,23.188253 65.6395564,21.313253 66.9186691,19.9879518 C68.1977819,18.6626506 70.1090573,18 72.6524954,18 C73.5249538,18 74.3049908,18.0677711 74.9926063,18.2033133 C75.6802218,18.3388554 76.3419593,18.5195783 76.9778189,18.7454819 L76.9778189,21.9307229 C75.6913124,21.3885542 74.3382625,21.1174699 72.9186691,21.1174699 C71.4399261,21.1174699 70.3567468,21.4789157 69.6691312,22.2018072 C68.9815157,22.9246988 68.6377079,24.061747 68.6377079,25.6129518 C68.6377079,27.0888554 69,28.1731928 69.7245841,28.8659639 C70.4491682,29.5587349 71.5286506,29.9051205 72.9630314,29.9051205 C73.6580407,29.9051205 74.3456562,29.8411145 75.025878,29.7131024 C75.7060998,29.5850904 76.3641405,29.3855422 77,29.1144578 L77,32.3222892 C76.3789279,32.5331325 75.7208872,32.6987952 75.025878,32.8192771 C74.3308688,32.939759 73.5471349,33 72.6746765,33 Z M81.9554656,33 C80.902834,33 80.1470985,32.751462 79.6882591,32.254386 C79.2294197,31.7573099 79,30.9605263 79,29.8640351 L79,18 L82.2591093,18 L82.2591093,29.5131579 C82.2591093,29.8494152 82.3232119,30.0796784 82.451417,30.2039474 C82.5796221,30.3282164 82.7719298,30.3903509 83.0283401,30.3903509 C83.3927126,30.3903509 83.7165992,30.3391813 84,30.2368421 L84,32.627193 C83.6896086,32.7587719 83.3825911,32.8538012 83.0789474,32.9122807 C82.7753036,32.9707602 82.4008097,33 81.9554656,33 Z M91.214433,33 C89.3395189,33 87.8350515,32.5435223 86.7010309,31.6305668 C85.5670103,30.7176113 85,29.3407557 85,27.5 C85,25.8225371 85.4687285,24.4865047 86.4061856,23.4919028 C87.3436426,22.4973009 88.7498282,22 90.6247423,22 C92.3333333,22 93.6563574,22.4304993 94.5938144,23.291498 C95.5312715,24.1524966 96,25.3103914 96,26.7651822 L96,28.6578947 L88.3793814,28.6578947 C88.5457045,29.3556005 88.9350515,29.8417679 89.5474227,30.1163968 C90.1597938,30.3910256 90.995189,30.5283401 92.0536082,30.5283401 C92.643299,30.5283401 93.2443299,30.4763833 93.856701,30.3724696 C94.4690722,30.268556 94.9793814,30.1349528 95.3876289,29.9716599 L95.3876289,32.3097166 C94.8735395,32.5472335 94.2611684,32.7216599 93.5505155,32.832996 C92.8398625,32.944332 92.0611684,33 91.214433,33 Z M88.3793814,26.5870445 L92.8247423,26.5870445 L92.8247423,26.1194332 C92.8247423,25.599865 92.6659794,25.1879217 92.3484536,24.8836032 C92.0309278,24.5792848 91.4941581,24.4271255 90.7381443,24.4271255 C89.8611684,24.4271255 89.2487973,24.601552 88.9010309,24.9504049 C88.5532646,25.2992578 88.3793814,25.8448043 88.3793814,26.5870445 Z M100.818182,33 C100.136364,33 99.5037879,32.8812416 98.9204545,32.6437247 C98.3371212,32.4062078 97.8712121,32.0387989 97.5227273,31.541498 C97.1742424,31.044197 97,30.4244265 97,29.6821862 C97,28.5985155 97.375,27.7486505 98.125,27.1325911 C98.875,26.5165317 100,26.208502 101.5,26.208502 L104.5,26.208502 L104.5,25.9635628 C104.5,25.4291498 104.318182,25.0468961 103.954545,24.8168016 C103.590909,24.5867072 102.909091,24.4716599 101.909091,24.4716599 C100.681818,24.4716599 99.4772727,24.65722 98.2954545,25.0283401 L98.2954545,22.7125506 C98.8257576,22.5047233 99.4734848,22.3340081 100.238636,22.2004049 C101.003788,22.0668016 101.810606,22 102.659091,22 C104.325758,22 105.632576,22.3340081 106.579545,23.0020243 C107.526515,23.6700405 108,24.731444 108,26.1862348 L108,32.7773279 L104.795455,32.7773279 L104.613636,31.8866397 C104.219697,32.242915 103.715909,32.5175439 103.102273,32.7105263 C102.488636,32.9035088 101.727273,33 100.818182,33 Z M101.977273,30.7955466 C102.55303,30.7955466 103.05303,30.6990553 103.477273,30.5060729 C103.901515,30.3130904 104.242424,30.0681511 104.5,29.7712551 L104.5,28.2793522 L101.909091,28.2793522 C100.833333,28.2793522 100.295455,28.7024291 100.295455,29.548583 C100.295455,29.9345479 100.431818,30.2388664 100.704545,30.4615385 C100.977273,30.6842105 101.401515,30.7955466 101.977273,30.7955466 Z M110,33 L110,22.2272727 L113.313253,22.2272727 L113.423695,23.1590909 C113.850736,22.8560606 114.38822,22.5871212 115.036145,22.3522727 C115.68407,22.1174242 116.376171,22 117.11245,22 C118.467202,22 119.453815,22.3333333 120.072289,23 C120.690763,23.6666667 121,24.6969697 121,26.0909091 L121,33 L117.443775,33 L117.443775,26.3863636 C117.443775,25.780303 117.318608,25.3484848 117.068273,25.0909091 C116.817938,24.8333333 116.368809,24.7045455 115.720884,24.7045455 C115.338019,24.7045455 114.947791,24.7954545 114.550201,24.9772727 C114.15261,25.1590909 113.821285,25.3863636 113.556225,25.6590909 L113.556225,33 L110,33 Z M123,33 L123,19 L129.242685,19 C130.704532,19 131.935169,19.2355072 132.934596,19.7065217 C133.934022,20.1775362 134.694779,20.9311594 135.216867,21.9673913 C135.738956,23.0036232 136,24.3768116 136,26.0869565 C136,28.4927536 135.429432,30.2463768 134.288296,31.3478261 C133.14716,32.4492754 131.46529,33 129.242685,33 L123,33 Z M126.60241,30.3043478 L128.75043,30.3043478 C129.526104,30.3043478 130.178715,30.192029 130.708262,29.9673913 C131.237808,29.7427536 131.640562,29.326087 131.916523,28.7173913 C132.192484,28.1086957 132.330465,27.2318841 132.330465,26.0869565 C132.330465,24.9275362 132.207401,24.0326087 131.961274,23.4021739 C131.715146,22.7717391 131.327309,22.3297101 130.797762,22.076087 C130.268216,21.8224638 129.585772,21.6956522 128.75043,21.6956522 L126.60241,21.6956522 L126.60241,30.3043478 Z M144.214433,33 C142.339519,33 140.835052,32.5435223 139.701031,31.6305668 C138.56701,30.7176113 138,29.3407557 138,27.5 C138,25.8225371 138.468729,24.4865047 139.406186,23.4919028 C140.343643,22.4973009 141.749828,22 143.624742,22 C145.333333,22 146.656357,22.4304993 147.593814,23.291498 C148.531271,24.1524966 149,25.3103914 149,26.7651822 L149,28.6578947 L141.379381,28.6578947 C141.545704,29.3556005 141.935052,29.8417679 142.547423,30.1163968 C143.159794,30.3910256 143.995189,30.5283401 145.053608,30.5283401 C145.643299,30.5283401 146.24433,30.4763833 146.856701,30.3724696 C147.469072,30.268556 147.979381,30.1349528 148.387629,29.9716599 L148.387629,32.3097166 C147.87354,32.5472335 147.261168,32.7216599 146.550515,32.832996 C145.839863,32.944332 145.061168,33 144.214433,33 Z M141.379381,26.5870445 L145.824742,26.5870445 L145.824742,26.1194332 C145.824742,25.599865 145.665979,25.1879217 145.348454,24.8836032 C145.030928,24.5792848 144.494158,24.4271255 143.738144,24.4271255 C142.861168,24.4271255 142.248797,24.601552 141.901031,24.9504049 C141.553265,25.2992578 141.379381,25.8448043 141.379381,26.5870445 Z M153.818182,33 C153.136364,33 152.503788,32.8812416 151.920455,32.6437247 C151.337121,32.4062078 150.871212,32.0387989 150.522727,31.541498 C150.174242,31.044197 150,30.4244265 150,29.6821862 C150,28.5985155 150.375,27.7486505 151.125,27.1325911 C151.875,26.5165317 153,26.208502 154.5,26.208502 L157.5,26.208502 L157.5,25.9635628 C157.5,25.4291498 157.318182,25.0468961 156.954545,24.8168016 C156.590909,24.5867072 155.909091,24.4716599 154.909091,24.4716599 C153.681818,24.4716599 152.477273,24.65722 151.295455,25.0283401 L151.295455,22.7125506 C151.825758,22.5047233 152.473485,22.3340081 153.238636,22.2004049 C154.003788,22.0668016 154.810606,22 155.659091,22 C157.325758,22 158.632576,22.3340081 159.579545,23.0020243 C160.526515,23.6700405 161,24.731444 161,26.1862348 L161,32.7773279 L157.795455,32.7773279 L157.613636,31.8866397 C157.219697,32.242915 156.715909,32.5175439 156.102273,32.7105263 C155.488636,32.9035088 154.727273,33 153.818182,33 Z M154.977273,30.7955466 C155.55303,30.7955466 156.05303,30.6990553 156.477273,30.5060729 C156.901515,30.3130904 157.242424,30.0681511 157.5,29.7712551 L157.5,28.2793522 L154.909091,28.2793522 C153.833333,28.2793522 153.295455,28.7024291 153.295455,29.548583 C153.295455,29.9345479 153.431818,30.2388664 153.704545,30.4615385 C153.977273,30.6842105 154.401515,30.7955466 154.977273,30.7955466 Z M165.955466,33 C164.902834,33 164.147099,32.751462 163.688259,32.254386 C163.22942,31.7573099 163,30.9605263 163,29.8640351 L163,18 L166.259109,18 L166.259109,29.5131579 C166.259109,29.8494152 166.323212,30.0796784 166.451417,30.2039474 C166.579622,30.3282164 166.77193,30.3903509 167.02834,30.3903509 C167.392713,30.3903509 167.716599,30.3391813 168,30.2368421 L168,32.627193 C167.689609,32.7587719 167.382591,32.8538012 167.078947,32.9122807 C166.775304,32.9707602 166.40081,33 165.955466,33 Z" id="Combined-Shape" fill="#1B1C1E" fill-rule="nonzero"></path>
    </g>
</svg>