<?xml version="1.0" encoding="UTF-8"?>
<svg width="103px" height="50px" viewBox="0 0 103 50" version="1.1" xmlns="http://www.w3.org/2000/svg" xmlns:xlink="http://www.w3.org/1999/xlink">
    <title>Artboard Copy</title>
    <g id="Artboard-Copy" stroke="none" stroke-width="1" fill="none" fill-rule="evenodd">
        <path d="M51.196735,0.321845284 C51.6458165,-0.107281761 52.354412,-0.107281761 52.8033387,0.321845284 L52.8033387,0.321845284 L65.642551,12.5899753 C65.9847009,12.9167163 66.0928705,13.4178529 65.9163019,13.8559233 C65.7395786,14.2941479 65.3132452,14.5811063 64.8394038,14.5811063 L64.8394038,14.5811063 L63.4321167,14.5811063 L63.4321167,26.8435311 C63.4321167,27.4823645 62.9124697,28 62.2714995,28 L62.2714995,28 L41.7285742,28 C41.087604,28 40.567957,27.4823645 40.567957,26.8435311 L40.567957,26.8435311 L40.567957,14.5811063 L39.1606699,14.5811063 C38.6868286,14.5811063 38.2604952,14.2941479 38.0837718,13.8559233 C37.9070485,13.4178529 38.0153728,12.9167163 38.357368,12.5899753 L38.357368,12.5899753 Z M48.6320393,4.82758621 C48.6292101,4.8588061 48.6199659,4.8886114 48.6178605,4.91914044 C48.6136167,4.8886114 48.6057871,4.8588061 48.6029579,4.82758621 L48.6029579,5.01138553 C48.4454114,6.33768832 47.9806017,7.50075283 47.3256441,8.36365892 C46.4662939,9.01792794 45.3025096,9.48346298 43.9769021,9.64170081 L43.7931034,9.64170081 C43.8257378,9.64383916 43.8541284,9.65091216 43.8846574,9.65587971 C43.8541284,9.65943266 43.8257707,9.66581481 43.7931034,9.66864401 L43.977593,9.66864401 C45.3024767,9.82688184 46.466261,10.2916931 47.3284404,10.9459622 C47.9834309,11.809592 48.4482406,12.9726565 48.6057542,14.2989593 L48.6057542,14.4827586 C48.6085834,14.4515387 48.616413,14.4217334 48.6206568,14.3905135 L48.6348356,14.4827586 L48.6348356,14.4827586 L48.6348356,14.2989593 C48.7923821,12.9733803 49.2571918,11.809592 49.9121494,10.9459622 C50.7750526,10.2916931 51.938146,9.82688184 53.2637205,9.67005861 L53.4482759,9.66936776 C53.4156415,9.66653856 53.3872509,9.65943266 53.3567219,9.65587971 C53.3858034,9.65018842 53.414194,9.64380627 53.4468613,9.64170081 L53.2609242,9.64170081 C51.9367643,9.48346298 50.7722563,9.01865169 49.9093531,8.36365892 C49.2543626,7.50144368 48.7895529,6.33765542 48.6320393,5.01138553 L48.6320393,4.82758621 Z" id="Combined-Shape" fill="#F48067" fill-rule="nonzero"></path>
        <path d="M7.67467652,50 C5.17560074,50 3.27171904,49.3486446 1.96303142,48.0459337 C0.654343808,46.7432229 0,44.9322289 0,42.6129518 C0,40.188253 0.639556377,38.313253 1.91866913,36.9879518 C3.19778189,35.6626506 5.1090573,35 7.65249538,35 C8.52495379,35 9.30499076,35.0677711 9.99260628,35.2033133 C10.6802218,35.3388554 11.3419593,35.5195783 11.9778189,35.7454819 L11.9778189,38.9307229 C10.6913124,38.3885542 9.33826248,38.1174699 7.91866913,38.1174699 C6.43992606,38.1174699 5.35674677,38.4789157 4.66913124,39.2018072 C3.98151571,39.9246988 3.63770795,41.061747 3.63770795,42.6129518 C3.63770795,44.0888554 4,45.1731928 4.7245841,45.8659639 C5.44916821,46.5587349 6.52865065,46.9051205 7.96303142,46.9051205 C8.65804067,46.9051205 9.34565619,46.8411145 10.025878,46.7131024 C10.7060998,46.5850904 11.3641405,46.3855422 12,46.1144578 L12,49.3222892 C11.3789279,49.5331325 10.7208872,49.6987952 10.025878,49.8192771 C9.33086876,49.939759 8.54713494,50 7.67467652,50 Z M16.9554656,50 C15.902834,50 15.1470985,49.751462 14.6882591,49.254386 C14.2294197,48.7573099 14,47.9605263 14,46.8640351 L14,35 L17.2591093,35 L17.2591093,46.5131579 C17.2591093,46.8494152 17.3232119,47.0796784 17.451417,47.2039474 C17.5796221,47.3282164 17.7719298,47.3903509 18.0283401,47.3903509 C18.3927126,47.3903509 18.7165992,47.3391813 19,47.2368421 L19,49.627193 C18.6896086,49.7587719 18.3825911,49.8538012 18.0789474,49.9122807 C17.7753036,49.9707602 17.4008097,50 16.9554656,50 Z M26.214433,50 C24.3395189,50 22.8350515,49.5435223 21.7010309,48.6305668 C20.5670103,47.7176113 20,46.3407557 20,44.5 C20,42.8225371 20.4687285,41.4865047 21.4061856,40.4919028 C22.3436426,39.4973009 23.7498282,39 25.6247423,39 C27.3333333,39 28.6563574,39.4304993 29.5938144,40.291498 C30.5312715,41.1524966 31,42.3103914 31,43.7651822 L31,45.6578947 L23.3793814,45.6578947 C23.5457045,46.3556005 23.9350515,46.8417679 24.5474227,47.1163968 C25.1597938,47.3910256 25.995189,47.5283401 27.0536082,47.5283401 C27.643299,47.5283401 28.2443299,47.4763833 28.856701,47.3724696 C29.4690722,47.268556 29.9793814,47.1349528 30.3876289,46.9716599 L30.3876289,49.3097166 C29.8735395,49.5472335 29.2611684,49.7216599 28.5505155,49.832996 C27.8398625,49.944332 27.0611684,50 26.214433,50 Z M23.3793814,43.5870445 L27.8247423,43.5870445 L27.8247423,43.1194332 C27.8247423,42.599865 27.6659794,42.1879217 27.3484536,41.8836032 C27.0309278,41.5792848 26.4941581,41.4271255 25.7381443,41.4271255 C24.8611684,41.4271255 24.2487973,41.601552 23.9010309,41.9504049 C23.5532646,42.2992578 23.3793814,42.8448043 23.3793814,43.5870445 Z M35.8181818,50 C35.1363636,50 34.5037879,49.8812416 33.9204545,49.6437247 C33.3371212,49.4062078 32.8712121,49.0387989 32.5227273,48.541498 C32.1742424,48.044197 32,47.4244265 32,46.6821862 C32,45.5985155 32.375,44.7486505 33.125,44.1325911 C33.875,43.5165317 35,43.208502 36.5,43.208502 L39.5,43.208502 L39.5,42.9635628 C39.5,42.4291498 39.3181818,42.0468961 38.9545455,41.8168016 C38.5909091,41.5867072 37.9090909,41.4716599 36.9090909,41.4716599 C35.6818182,41.4716599 34.4772727,41.65722 33.2954545,42.0283401 L33.2954545,39.7125506 C33.8257576,39.5047233 34.4734848,39.3340081 35.2386364,39.2004049 C36.0037879,39.0668016 36.8106061,39 37.6590909,39 C39.3257576,39 40.6325758,39.3340081 41.5795455,40.0020243 C42.5265152,40.6700405 43,41.731444 43,43.1862348 L43,49.7773279 L39.7954545,49.7773279 L39.6136364,48.8866397 C39.219697,49.242915 38.7159091,49.5175439 38.1022727,49.7105263 C37.4886364,49.9035088 36.7272727,50 35.8181818,50 Z M36.9772727,47.7955466 C37.5530303,47.7955466 38.0530303,47.6990553 38.4772727,47.5060729 C38.9015152,47.3130904 39.2424242,47.0681511 39.5,46.7712551 L39.5,45.2793522 L36.9090909,45.2793522 C35.8333333,45.2793522 35.2954545,45.7024291 35.2954545,46.548583 C35.2954545,46.9345479 35.4318182,47.2388664 35.7045455,47.4615385 C35.9772727,47.6842105 36.4015152,47.7955466 36.9772727,47.7955466 Z M45,50 L45,39.2272727 L48.313253,39.2272727 L48.4236948,40.1590909 C48.8507363,39.8560606 49.3882195,39.5871212 50.0361446,39.3522727 C50.6840696,39.1174242 51.3761714,39 52.1124498,39 C53.4672021,39 54.4538153,39.3333333 55.0722892,40 C55.6907631,40.6666667 56,41.6969697 56,43.0909091 L56,50 L52.4437751,50 L52.4437751,43.3863636 C52.4437751,42.780303 52.3186078,42.3484848 52.0682731,42.0909091 C51.8179384,41.8333333 51.3688086,41.7045455 50.7208835,41.7045455 C50.3380187,41.7045455 49.9477912,41.7954545 49.5502008,41.9772727 C49.1526104,42.1590909 48.8212851,42.3863636 48.5562249,42.6590909 L48.5562249,50 L45,50 Z M58,50 L58,36 L64.242685,36 C65.7045324,36 66.9351692,36.2355072 67.9345955,36.7065217 C68.9340218,37.1775362 69.6947791,37.9311594 70.2168675,38.9673913 C70.7389558,40.0036232 71,41.3768116 71,43.0869565 C71,45.4927536 70.429432,47.2463768 69.288296,48.3478261 C68.1471601,49.4492754 66.4652897,50 64.242685,50 L58,50 Z M61.6024096,47.3043478 L63.7504303,47.3043478 C64.5261044,47.3043478 65.1787149,47.192029 65.7082616,46.9673913 C66.2378084,46.7427536 66.6405622,46.326087 66.9165232,45.7173913 C67.1924842,45.1086957 67.3304647,44.2318841 67.3304647,43.0869565 C67.3304647,41.9275362 67.207401,41.0326087 66.9612737,40.4021739 C66.7151463,39.7717391 66.3273092,39.3297101 65.7977625,39.076087 C65.2682157,38.8224638 64.5857717,38.6956522 63.7504303,38.6956522 L61.6024096,38.6956522 L61.6024096,47.3043478 Z M79.214433,50 C77.3395189,50 75.8350515,49.5435223 74.7010309,48.6305668 C73.5670103,47.7176113 73,46.3407557 73,44.5 C73,42.8225371 73.4687285,41.4865047 74.4061856,40.4919028 C75.3436426,39.4973009 76.7498282,39 78.6247423,39 C80.3333333,39 81.6563574,39.4304993 82.5938144,40.291498 C83.5312715,41.1524966 84,42.3103914 84,43.7651822 L84,45.6578947 L76.3793814,45.6578947 C76.5457045,46.3556005 76.9350515,46.8417679 77.5474227,47.1163968 C78.1597938,47.3910256 78.995189,47.5283401 80.0536082,47.5283401 C80.643299,47.5283401 81.2443299,47.4763833 81.856701,47.3724696 C82.4690722,47.268556 82.9793814,47.1349528 83.3876289,46.9716599 L83.3876289,49.3097166 C82.8735395,49.5472335 82.2611684,49.7216599 81.5505155,49.832996 C80.8398625,49.944332 80.0611684,50 79.214433,50 Z M76.3793814,43.5870445 L80.8247423,43.5870445 L80.8247423,43.1194332 C80.8247423,42.599865 80.6659794,42.1879217 80.3484536,41.8836032 C80.0309278,41.5792848 79.4941581,41.4271255 78.7381443,41.4271255 C77.8611684,41.4271255 77.2487973,41.601552 76.9010309,41.9504049 C76.5532646,42.2992578 76.3793814,42.8448043 76.3793814,43.5870445 Z M88.8181818,50 C88.1363636,50 87.5037879,49.8812416 86.9204545,49.6437247 C86.3371212,49.4062078 85.8712121,49.0387989 85.5227273,48.541498 C85.1742424,48.044197 85,47.4244265 85,46.6821862 C85,45.5985155 85.375,44.7486505 86.125,44.1325911 C86.875,43.5165317 88,43.208502 89.5,43.208502 L92.5,43.208502 L92.5,42.9635628 C92.5,42.4291498 92.3181818,42.0468961 91.9545455,41.8168016 C91.5909091,41.5867072 90.9090909,41.4716599 89.9090909,41.4716599 C88.6818182,41.4716599 87.4772727,41.65722 86.2954545,42.0283401 L86.2954545,39.7125506 C86.8257576,39.5047233 87.4734848,39.3340081 88.2386364,39.2004049 C89.0037879,39.0668016 89.8106061,39 90.6590909,39 C92.3257576,39 93.6325758,39.3340081 94.5795455,40.0020243 C95.5265152,40.6700405 96,41.731444 96,43.1862348 L96,49.7773279 L92.7954545,49.7773279 L92.6136364,48.8866397 C92.219697,49.242915 91.7159091,49.5175439 91.1022727,49.7105263 C90.4886364,49.9035088 89.7272727,50 88.8181818,50 Z M89.9772727,47.7955466 C90.5530303,47.7955466 91.0530303,47.6990553 91.4772727,47.5060729 C91.9015152,47.3130904 92.2424242,47.0681511 92.5,46.7712551 L92.5,45.2793522 L89.9090909,45.2793522 C88.8333333,45.2793522 88.2954545,45.7024291 88.2954545,46.548583 C88.2954545,46.9345479 88.4318182,47.2388664 88.7045455,47.4615385 C88.9772727,47.6842105 89.4015152,47.7955466 89.9772727,47.7955466 Z M100.955466,50 C99.902834,50 99.1470985,49.751462 98.6882591,49.254386 C98.2294197,48.7573099 98,47.9605263 98,46.8640351 L98,35 L101.259109,35 L101.259109,46.5131579 C101.259109,46.8494152 101.323212,47.0796784 101.451417,47.2039474 C101.579622,47.3282164 101.77193,47.3903509 102.02834,47.3903509 C102.392713,47.3903509 102.716599,47.3391813 103,47.2368421 L103,49.627193 C102.689609,49.7587719 102.382591,49.8538012 102.078947,49.9122807 C101.775304,49.9707602 101.40081,50 100.955466,50 Z" id="Combined-Shape" fill="#1B1C1E" fill-rule="nonzero"></path>
    </g>
</svg>