<?xml version="1.0" encoding="UTF-8"?>
<svg width="180px" height="40px" viewBox="0 0 180 40" version="1.1" xmlns="http://www.w3.org/2000/svg" xmlns:xlink="http://www.w3.org/1999/xlink">
    <title>Artboard Copy 4</title>
    <g id="Artboard-Copy-4" stroke="none" stroke-width="1" fill="none" fill-rule="evenodd">
        <path d="M7.67467652,28 C5.17560074,28 3.27171904,27.3486446 1.96303142,26.0459337 C0.654343808,24.7432229 0,22.9322289 0,20.6129518 C0,18.188253 0.639556377,16.313253 1.91866913,14.9879518 C3.19778189,13.6626506 5.1090573,13 7.65249538,13 C8.52495379,13 9.30499076,13.0677711 9.99260628,13.2033133 C10.6802218,13.3388554 11.3419593,13.5195783 11.9778189,13.7454819 L11.9778189,16.9307229 C10.6913124,16.3885542 9.33826248,16.1174699 7.91866913,16.1174699 C6.43992606,16.1174699 5.35674677,16.4789157 4.66913124,17.2018072 C3.98151571,17.9246988 3.63770795,19.061747 3.63770795,20.6129518 C3.63770795,22.0888554 4,23.1731928 4.7245841,23.8659639 C5.44916821,24.5587349 6.52865065,24.9051205 7.96303142,24.9051205 C8.65804067,24.9051205 9.34565619,24.8411145 10.025878,24.7131024 C10.7060998,24.5850904 11.3641405,24.3855422 12,24.1144578 L12,27.3222892 C11.3789279,27.5331325 10.7208872,27.6987952 10.025878,27.8192771 C9.33086876,27.939759 8.54713494,28 7.67467652,28 Z M16.9554656,28 C15.902834,28 15.1470985,27.751462 14.6882591,27.254386 C14.2294197,26.7573099 14,25.9605263 14,24.8640351 L14,13 L17.2591093,13 L17.2591093,24.5131579 C17.2591093,24.8494152 17.3232119,25.0796784 17.451417,25.2039474 C17.5796221,25.3282164 17.7719298,25.3903509 18.0283401,25.3903509 C18.3927126,25.3903509 18.7165992,25.3391813 19,25.2368421 L19,27.627193 C18.6896086,27.7587719 18.3825911,27.8538012 18.0789474,27.9122807 C17.7753036,27.9707602 17.4008097,28 16.9554656,28 Z M26.214433,28 C24.3395189,28 22.8350515,27.5435223 21.7010309,26.6305668 C20.5670103,25.7176113 20,24.3407557 20,22.5 C20,20.8225371 20.4687285,19.4865047 21.4061856,18.4919028 C22.3436426,17.4973009 23.7498282,17 25.6247423,17 C27.3333333,17 28.6563574,17.4304993 29.5938144,18.291498 C30.5312715,19.1524966 31,20.3103914 31,21.7651822 L31,23.6578947 L23.3793814,23.6578947 C23.5457045,24.3556005 23.9350515,24.8417679 24.5474227,25.1163968 C25.1597938,25.3910256 25.995189,25.5283401 27.0536082,25.5283401 C27.643299,25.5283401 28.2443299,25.4763833 28.856701,25.3724696 C29.4690722,25.268556 29.9793814,25.1349528 30.3876289,24.9716599 L30.3876289,27.3097166 C29.8735395,27.5472335 29.2611684,27.7216599 28.5505155,27.832996 C27.8398625,27.944332 27.0611684,28 26.214433,28 Z M23.3793814,21.5870445 L27.8247423,21.5870445 L27.8247423,21.1194332 C27.8247423,20.599865 27.6659794,20.1879217 27.3484536,19.8836032 C27.0309278,19.5792848 26.4941581,19.4271255 25.7381443,19.4271255 C24.8611684,19.4271255 24.2487973,19.601552 23.9010309,19.9504049 C23.5532646,20.2992578 23.3793814,20.8448043 23.3793814,21.5870445 Z M35.8181818,28 C35.1363636,28 34.5037879,27.8812416 33.9204545,27.6437247 C33.3371212,27.4062078 32.8712121,27.0387989 32.5227273,26.541498 C32.1742424,26.044197 32,25.4244265 32,24.6821862 C32,23.5985155 32.375,22.7486505 33.125,22.1325911 C33.875,21.5165317 35,21.208502 36.5,21.208502 L39.5,21.208502 L39.5,20.9635628 C39.5,20.4291498 39.3181818,20.0468961 38.9545455,19.8168016 C38.5909091,19.5867072 37.9090909,19.4716599 36.9090909,19.4716599 C35.6818182,19.4716599 34.4772727,19.65722 33.2954545,20.0283401 L33.2954545,17.7125506 C33.8257576,17.5047233 34.4734848,17.3340081 35.2386364,17.2004049 C36.0037879,17.0668016 36.8106061,17 37.6590909,17 C39.3257576,17 40.6325758,17.3340081 41.5795455,18.0020243 C42.5265152,18.6700405 43,19.731444 43,21.1862348 L43,27.7773279 L39.7954545,27.7773279 L39.6136364,26.8866397 C39.219697,27.242915 38.7159091,27.5175439 38.1022727,27.7105263 C37.4886364,27.9035088 36.7272727,28 35.8181818,28 Z M36.9772727,25.7955466 C37.5530303,25.7955466 38.0530303,25.6990553 38.4772727,25.5060729 C38.9015152,25.3130904 39.2424242,25.0681511 39.5,24.7712551 L39.5,23.2793522 L36.9090909,23.2793522 C35.8333333,23.2793522 35.2954545,23.7024291 35.2954545,24.548583 C35.2954545,24.9345479 35.4318182,25.2388664 35.7045455,25.4615385 C35.9772727,25.6842105 36.4015152,25.7955466 36.9772727,25.7955466 Z M45,28 L45,17.2272727 L48.313253,17.2272727 L48.4236948,18.1590909 C48.8507363,17.8560606 49.3882195,17.5871212 50.0361446,17.3522727 C50.6840696,17.1174242 51.3761714,17 52.1124498,17 C53.4672021,17 54.4538153,17.3333333 55.0722892,18 C55.6907631,18.6666667 56,19.6969697 56,21.0909091 L56,28 L52.4437751,28 L52.4437751,21.3863636 C52.4437751,20.780303 52.3186078,20.3484848 52.0682731,20.0909091 C51.8179384,19.8333333 51.3688086,19.7045455 50.7208835,19.7045455 C50.3380187,19.7045455 49.9477912,19.7954545 49.5502008,19.9772727 C49.1526104,20.1590909 48.8212851,20.3863636 48.5562249,20.6590909 L48.5562249,28 L45,28 Z M58,28 L58,14 L64.242685,14 C65.7045324,14 66.9351692,14.2355072 67.9345955,14.7065217 C68.9340218,15.1775362 69.6947791,15.9311594 70.2168675,16.9673913 C70.7389558,18.0036232 71,19.3768116 71,21.0869565 C71,23.4927536 70.429432,25.2463768 69.288296,26.3478261 C68.1471601,27.4492754 66.4652897,28 64.242685,28 L58,28 Z M61.6024096,25.3043478 L63.7504303,25.3043478 C64.5261044,25.3043478 65.1787149,25.192029 65.7082616,24.9673913 C66.2378084,24.7427536 66.6405622,24.326087 66.9165232,23.7173913 C67.1924842,23.1086957 67.3304647,22.2318841 67.3304647,21.0869565 C67.3304647,19.9275362 67.207401,19.0326087 66.9612737,18.4021739 C66.7151463,17.7717391 66.3273092,17.3297101 65.7977625,17.076087 C65.2682157,16.8224638 64.5857717,16.6956522 63.7504303,16.6956522 L61.6024096,16.6956522 L61.6024096,25.3043478 Z M79.214433,28 C77.3395189,28 75.8350515,27.5435223 74.7010309,26.6305668 C73.5670103,25.7176113 73,24.3407557 73,22.5 C73,20.8225371 73.4687285,19.4865047 74.4061856,18.4919028 C75.3436426,17.4973009 76.7498282,17 78.6247423,17 C80.3333333,17 81.6563574,17.4304993 82.5938144,18.291498 C83.5312715,19.1524966 84,20.3103914 84,21.7651822 L84,23.6578947 L76.3793814,23.6578947 C76.5457045,24.3556005 76.9350515,24.8417679 77.5474227,25.1163968 C78.1597938,25.3910256 78.995189,25.5283401 80.0536082,25.5283401 C80.643299,25.5283401 81.2443299,25.4763833 81.856701,25.3724696 C82.4690722,25.268556 82.9793814,25.1349528 83.3876289,24.9716599 L83.3876289,27.3097166 C82.8735395,27.5472335 82.2611684,27.7216599 81.5505155,27.832996 C80.8398625,27.944332 80.0611684,28 79.214433,28 Z M76.3793814,21.5870445 L80.8247423,21.5870445 L80.8247423,21.1194332 C80.8247423,20.599865 80.6659794,20.1879217 80.3484536,19.8836032 C80.0309278,19.5792848 79.4941581,19.4271255 78.7381443,19.4271255 C77.8611684,19.4271255 77.2487973,19.601552 76.9010309,19.9504049 C76.5532646,20.2992578 76.3793814,20.8448043 76.3793814,21.5870445 Z M88.8181818,28 C88.1363636,28 87.5037879,27.8812416 86.9204545,27.6437247 C86.3371212,27.4062078 85.8712121,27.0387989 85.5227273,26.541498 C85.1742424,26.044197 85,25.4244265 85,24.6821862 C85,23.5985155 85.375,22.7486505 86.125,22.1325911 C86.875,21.5165317 88,21.208502 89.5,21.208502 L92.5,21.208502 L92.5,20.9635628 C92.5,20.4291498 92.3181818,20.0468961 91.9545455,19.8168016 C91.5909091,19.5867072 90.9090909,19.4716599 89.9090909,19.4716599 C88.6818182,19.4716599 87.4772727,19.65722 86.2954545,20.0283401 L86.2954545,17.7125506 C86.8257576,17.5047233 87.4734848,17.3340081 88.2386364,17.2004049 C89.0037879,17.0668016 89.8106061,17 90.6590909,17 C92.3257576,17 93.6325758,17.3340081 94.5795455,18.0020243 C95.5265152,18.6700405 96,19.731444 96,21.1862348 L96,27.7773279 L92.7954545,27.7773279 L92.6136364,26.8866397 C92.219697,27.242915 91.7159091,27.5175439 91.1022727,27.7105263 C90.4886364,27.9035088 89.7272727,28 88.8181818,28 Z M89.9772727,25.7955466 C90.5530303,25.7955466 91.0530303,25.6990553 91.4772727,25.5060729 C91.9015152,25.3130904 92.2424242,25.0681511 92.5,24.7712551 L92.5,23.2793522 L89.9090909,23.2793522 C88.8333333,23.2793522 88.2954545,23.7024291 88.2954545,24.548583 C88.2954545,24.9345479 88.4318182,25.2388664 88.7045455,25.4615385 C88.9772727,25.6842105 89.4015152,25.7955466 89.9772727,25.7955466 Z M100.955466,28 C99.902834,28 99.1470985,27.751462 98.6882591,27.254386 C98.2294197,26.7573099 98,25.9605263 98,24.8640351 L98,13 L101.259109,13 L101.259109,24.5131579 C101.259109,24.8494152 101.323212,25.0796784 101.451417,25.2039474 C101.579622,25.3282164 101.77193,25.3903509 102.02834,25.3903509 C102.392713,25.3903509 102.716599,25.3391813 103,25.2368421 L103,27.627193 C102.689609,27.7587719 102.382591,27.8538012 102.078947,27.9122807 C101.775304,27.9707602 101.40081,28 100.955466,28 Z" id="Combined-Shape" fill="#1B1C1E" fill-rule="nonzero"></path>
        <g id="Kanit--0.5-Copy" transform="translate(111.000000, 13.000000)" fill="#F48067" fill-rule="nonzero">
            <path d="M0,14.828 L5.412,0.66 L9.24,0.66 L14.652,14.828 L10.956,14.828 L9.68,11.616 L4.95,11.616 L3.696,14.828 L0,14.828 Z M5.434,8.998 L9.196,8.998 L7.304,4.07 L5.434,8.998 Z" id="Shape"></path>
            <path d="M20.344,15.048 C19.332,15.048 18.4666667,14.8866667 17.748,14.564 C17.0293333,14.2413333 16.4793333,13.7096667 16.098,12.969 C15.7166667,12.2283333 15.526,11.2346667 15.526,9.988 C15.526,8.72666667 15.746,7.667 16.186,6.809 C16.626,5.951 17.231,5.29833333 18.001,4.851 C18.771,4.40366667 19.6546667,4.18 20.652,4.18 C21.1946667,4.18 21.6823333,4.23866667 22.115,4.356 C22.5476667,4.47333333 22.9546667,4.64933333 23.336,4.884 L23.336,0 L26.878,0 L26.878,14.828 L23.82,14.828 L23.622,13.948 C23.1966667,14.3146667 22.72,14.5896667 22.192,14.773 C21.664,14.9563333 21.048,15.048 20.344,15.048 Z M21.356,12.474 C22.1333333,12.474 22.7933333,12.21 23.336,11.682 L23.336,7.458 C22.8373333,7.00333333 22.1993333,6.776 21.422,6.776 C20.674,6.776 20.1056667,7.05833333 19.717,7.623 C19.3283333,8.18766667 19.134,8.98333333 19.134,10.01 C19.134,11.0073333 19.321,11.6673333 19.695,11.99 C20.069,12.3126667 20.6226667,12.474 21.356,12.474 Z" id="Shape"></path>
            <path d="M29.622,14.828 L29.622,4.4 L32.9,4.4 L33.01,5.324 C33.4793333,4.98666667 34.0073333,4.71166667 34.594,4.499 C35.1806667,4.28633333 35.8113333,4.18 36.486,4.18 C37.19,4.18 37.74,4.28633333 38.136,4.499 C38.532,4.71166667 38.84,5.00866667 39.06,5.39 C39.544,5.038 40.0903333,4.74833333 40.699,4.521 C41.3076667,4.29366667 42.0226667,4.18 42.844,4.18 C44.0613333,4.18 44.956,4.49533333 45.528,5.126 C46.1,5.75666667 46.386,6.71733333 46.386,8.008 L46.386,14.828 L42.888,14.828 L42.888,8.426 C42.888,7.854 42.767,7.43966667 42.525,7.183 C42.283,6.92633333 41.8906667,6.798 41.348,6.798 C41.0106667,6.798 40.6806667,6.86766667 40.358,7.007 C40.0353333,7.14633333 39.764,7.34066667 39.544,7.59 C39.5733333,7.75133333 39.5916667,7.90533333 39.599,8.052 C39.6063333,8.19866667 39.61,8.37466667 39.61,8.58 L39.61,14.828 L36.31,14.828 L36.31,8.382 C36.31,7.854 36.2183333,7.458 36.035,7.194 C35.8516667,6.93 35.5033333,6.798 34.99,6.798 C34.6233333,6.798 34.2786667,6.89333333 33.956,7.084 C33.6333333,7.27466667 33.34,7.49466667 33.076,7.744 L33.076,14.828 L29.622,14.828 Z" id="Path"></path>
            <path d="M49.724,2.75 L49.724,0.088 L53.574,0.088 L53.574,2.75 L49.724,2.75 Z M50.01,14.828 L50.01,7.018 L48.47,7.018 L48.778,4.4 L53.552,4.4 L53.552,14.828 L50.01,14.828 Z" id="Shape"></path>
            <path d="M56.318,14.828 L56.318,4.4 L59.618,4.4 L59.728,5.302 C60.1533333,5.00866667 60.6886667,4.74833333 61.334,4.521 C61.9793333,4.29366667 62.6686667,4.18 63.402,4.18 C64.7513333,4.18 65.734,4.50266667 66.35,5.148 C66.966,5.79333333 67.274,6.79066667 67.274,8.14 L67.274,14.828 L63.732,14.828 L63.732,8.426 C63.732,7.83933333 63.6073333,7.42133333 63.358,7.172 C63.1086667,6.92266667 62.6613333,6.798 62.016,6.798 C61.6346667,6.798 61.246,6.886 60.85,7.062 C60.454,7.238 60.124,7.458 59.86,7.722 L59.86,14.828 L56.318,14.828 Z" id="Path"></path>
        </g>
    </g>
</svg>