<?xml version="1.0" encoding="UTF-8"?>
<svg width="174px" height="40px" viewBox="0 0 174 40" version="1.1" xmlns="http://www.w3.org/2000/svg" xmlns:xlink="http://www.w3.org/1999/xlink">
    <title>Artboard Copy 3</title>
    <g id="Artboard-Copy-3" stroke="none" stroke-width="1" fill="none" fill-rule="evenodd">
        <path d="M7.67467652,28 C5.17560074,28 3.27171904,27.3486446 1.96303142,26.0459337 C0.654343808,24.7432229 0,22.9322289 0,20.6129518 C0,18.188253 0.639556377,16.313253 1.91866913,14.9879518 C3.19778189,13.6626506 5.1090573,13 7.65249538,13 C8.52495379,13 9.30499076,13.0677711 9.99260628,13.2033133 C10.6802218,13.3388554 11.3419593,13.5195783 11.9778189,13.7454819 L11.9778189,16.9307229 C10.6913124,16.3885542 9.33826248,16.1174699 7.91866913,16.1174699 C6.43992606,16.1174699 5.35674677,16.4789157 4.66913124,17.2018072 C3.98151571,17.9246988 3.63770795,19.061747 3.63770795,20.6129518 C3.63770795,22.0888554 4,23.1731928 4.7245841,23.8659639 C5.44916821,24.5587349 6.52865065,24.9051205 7.96303142,24.9051205 C8.65804067,24.9051205 9.34565619,24.8411145 10.025878,24.7131024 C10.7060998,24.5850904 11.3641405,24.3855422 12,24.1144578 L12,27.3222892 C11.3789279,27.5331325 10.7208872,27.6987952 10.025878,27.8192771 C9.33086876,27.939759 8.54713494,28 7.67467652,28 Z M16.9554656,28 C15.902834,28 15.1470985,27.751462 14.6882591,27.254386 C14.2294197,26.7573099 14,25.9605263 14,24.8640351 L14,13 L17.2591093,13 L17.2591093,24.5131579 C17.2591093,24.8494152 17.3232119,25.0796784 17.451417,25.2039474 C17.5796221,25.3282164 17.7719298,25.3903509 18.0283401,25.3903509 C18.3927126,25.3903509 18.7165992,25.3391813 19,25.2368421 L19,27.627193 C18.6896086,27.7587719 18.3825911,27.8538012 18.0789474,27.9122807 C17.7753036,27.9707602 17.4008097,28 16.9554656,28 Z M26.214433,28 C24.3395189,28 22.8350515,27.5435223 21.7010309,26.6305668 C20.5670103,25.7176113 20,24.3407557 20,22.5 C20,20.8225371 20.4687285,19.4865047 21.4061856,18.4919028 C22.3436426,17.4973009 23.7498282,17 25.6247423,17 C27.3333333,17 28.6563574,17.4304993 29.5938144,18.291498 C30.5312715,19.1524966 31,20.3103914 31,21.7651822 L31,23.6578947 L23.3793814,23.6578947 C23.5457045,24.3556005 23.9350515,24.8417679 24.5474227,25.1163968 C25.1597938,25.3910256 25.995189,25.5283401 27.0536082,25.5283401 C27.643299,25.5283401 28.2443299,25.4763833 28.856701,25.3724696 C29.4690722,25.268556 29.9793814,25.1349528 30.3876289,24.9716599 L30.3876289,27.3097166 C29.8735395,27.5472335 29.2611684,27.7216599 28.5505155,27.832996 C27.8398625,27.944332 27.0611684,28 26.214433,28 Z M23.3793814,21.5870445 L27.8247423,21.5870445 L27.8247423,21.1194332 C27.8247423,20.599865 27.6659794,20.1879217 27.3484536,19.8836032 C27.0309278,19.5792848 26.4941581,19.4271255 25.7381443,19.4271255 C24.8611684,19.4271255 24.2487973,19.601552 23.9010309,19.9504049 C23.5532646,20.2992578 23.3793814,20.8448043 23.3793814,21.5870445 Z M35.8181818,28 C35.1363636,28 34.5037879,27.8812416 33.9204545,27.6437247 C33.3371212,27.4062078 32.8712121,27.0387989 32.5227273,26.541498 C32.1742424,26.044197 32,25.4244265 32,24.6821862 C32,23.5985155 32.375,22.7486505 33.125,22.1325911 C33.875,21.5165317 35,21.208502 36.5,21.208502 L39.5,21.208502 L39.5,20.9635628 C39.5,20.4291498 39.3181818,20.0468961 38.9545455,19.8168016 C38.5909091,19.5867072 37.9090909,19.4716599 36.9090909,19.4716599 C35.6818182,19.4716599 34.4772727,19.65722 33.2954545,20.0283401 L33.2954545,17.7125506 C33.8257576,17.5047233 34.4734848,17.3340081 35.2386364,17.2004049 C36.0037879,17.0668016 36.8106061,17 37.6590909,17 C39.3257576,17 40.6325758,17.3340081 41.5795455,18.0020243 C42.5265152,18.6700405 43,19.731444 43,21.1862348 L43,27.7773279 L39.7954545,27.7773279 L39.6136364,26.8866397 C39.219697,27.242915 38.7159091,27.5175439 38.1022727,27.7105263 C37.4886364,27.9035088 36.7272727,28 35.8181818,28 Z M36.9772727,25.7955466 C37.5530303,25.7955466 38.0530303,25.6990553 38.4772727,25.5060729 C38.9015152,25.3130904 39.2424242,25.0681511 39.5,24.7712551 L39.5,23.2793522 L36.9090909,23.2793522 C35.8333333,23.2793522 35.2954545,23.7024291 35.2954545,24.548583 C35.2954545,24.9345479 35.4318182,25.2388664 35.7045455,25.4615385 C35.9772727,25.6842105 36.4015152,25.7955466 36.9772727,25.7955466 Z M45,28 L45,17.2272727 L48.313253,17.2272727 L48.4236948,18.1590909 C48.8507363,17.8560606 49.3882195,17.5871212 50.0361446,17.3522727 C50.6840696,17.1174242 51.3761714,17 52.1124498,17 C53.4672021,17 54.4538153,17.3333333 55.0722892,18 C55.6907631,18.6666667 56,19.6969697 56,21.0909091 L56,28 L52.4437751,28 L52.4437751,21.3863636 C52.4437751,20.780303 52.3186078,20.3484848 52.0682731,20.0909091 C51.8179384,19.8333333 51.3688086,19.7045455 50.7208835,19.7045455 C50.3380187,19.7045455 49.9477912,19.7954545 49.5502008,19.9772727 C49.1526104,20.1590909 48.8212851,20.3863636 48.5562249,20.6590909 L48.5562249,28 L45,28 Z M58,28 L58,14 L64.242685,14 C65.7045324,14 66.9351692,14.2355072 67.9345955,14.7065217 C68.9340218,15.1775362 69.6947791,15.9311594 70.2168675,16.9673913 C70.7389558,18.0036232 71,19.3768116 71,21.0869565 C71,23.4927536 70.429432,25.2463768 69.288296,26.3478261 C68.1471601,27.4492754 66.4652897,28 64.242685,28 L58,28 Z M61.6024096,25.3043478 L63.7504303,25.3043478 C64.5261044,25.3043478 65.1787149,25.192029 65.7082616,24.9673913 C66.2378084,24.7427536 66.6405622,24.326087 66.9165232,23.7173913 C67.1924842,23.1086957 67.3304647,22.2318841 67.3304647,21.0869565 C67.3304647,19.9275362 67.207401,19.0326087 66.9612737,18.4021739 C66.7151463,17.7717391 66.3273092,17.3297101 65.7977625,17.076087 C65.2682157,16.8224638 64.5857717,16.6956522 63.7504303,16.6956522 L61.6024096,16.6956522 L61.6024096,25.3043478 Z M79.214433,28 C77.3395189,28 75.8350515,27.5435223 74.7010309,26.6305668 C73.5670103,25.7176113 73,24.3407557 73,22.5 C73,20.8225371 73.4687285,19.4865047 74.4061856,18.4919028 C75.3436426,17.4973009 76.7498282,17 78.6247423,17 C80.3333333,17 81.6563574,17.4304993 82.5938144,18.291498 C83.5312715,19.1524966 84,20.3103914 84,21.7651822 L84,23.6578947 L76.3793814,23.6578947 C76.5457045,24.3556005 76.9350515,24.8417679 77.5474227,25.1163968 C78.1597938,25.3910256 78.995189,25.5283401 80.0536082,25.5283401 C80.643299,25.5283401 81.2443299,25.4763833 81.856701,25.3724696 C82.4690722,25.268556 82.9793814,25.1349528 83.3876289,24.9716599 L83.3876289,27.3097166 C82.8735395,27.5472335 82.2611684,27.7216599 81.5505155,27.832996 C80.8398625,27.944332 80.0611684,28 79.214433,28 Z M76.3793814,21.5870445 L80.8247423,21.5870445 L80.8247423,21.1194332 C80.8247423,20.599865 80.6659794,20.1879217 80.3484536,19.8836032 C80.0309278,19.5792848 79.4941581,19.4271255 78.7381443,19.4271255 C77.8611684,19.4271255 77.2487973,19.601552 76.9010309,19.9504049 C76.5532646,20.2992578 76.3793814,20.8448043 76.3793814,21.5870445 Z M88.8181818,28 C88.1363636,28 87.5037879,27.8812416 86.9204545,27.6437247 C86.3371212,27.4062078 85.8712121,27.0387989 85.5227273,26.541498 C85.1742424,26.044197 85,25.4244265 85,24.6821862 C85,23.5985155 85.375,22.7486505 86.125,22.1325911 C86.875,21.5165317 88,21.208502 89.5,21.208502 L92.5,21.208502 L92.5,20.9635628 C92.5,20.4291498 92.3181818,20.0468961 91.9545455,19.8168016 C91.5909091,19.5867072 90.9090909,19.4716599 89.9090909,19.4716599 C88.6818182,19.4716599 87.4772727,19.65722 86.2954545,20.0283401 L86.2954545,17.7125506 C86.8257576,17.5047233 87.4734848,17.3340081 88.2386364,17.2004049 C89.0037879,17.0668016 89.8106061,17 90.6590909,17 C92.3257576,17 93.6325758,17.3340081 94.5795455,18.0020243 C95.5265152,18.6700405 96,19.731444 96,21.1862348 L96,27.7773279 L92.7954545,27.7773279 L92.6136364,26.8866397 C92.219697,27.242915 91.7159091,27.5175439 91.1022727,27.7105263 C90.4886364,27.9035088 89.7272727,28 88.8181818,28 Z M89.9772727,25.7955466 C90.5530303,25.7955466 91.0530303,25.6990553 91.4772727,25.5060729 C91.9015152,25.3130904 92.2424242,25.0681511 92.5,24.7712551 L92.5,23.2793522 L89.9090909,23.2793522 C88.8333333,23.2793522 88.2954545,23.7024291 88.2954545,24.548583 C88.2954545,24.9345479 88.4318182,25.2388664 88.7045455,25.4615385 C88.9772727,25.6842105 89.4015152,25.7955466 89.9772727,25.7955466 Z M100.955466,28 C99.902834,28 99.1470985,27.751462 98.6882591,27.254386 C98.2294197,26.7573099 98,25.9605263 98,24.8640351 L98,13 L101.259109,13 L101.259109,24.5131579 C101.259109,24.8494152 101.323212,25.0796784 101.451417,25.2039474 C101.579622,25.3282164 101.77193,25.3903509 102.02834,25.3903509 C102.392713,25.3903509 102.716599,25.3391813 103,25.2368421 L103,27.627193 C102.689609,27.7587719 102.382591,27.8538012 102.078947,27.9122807 C101.775304,27.9707602 101.40081,28 100.955466,28 Z" id="Combined-Shape" fill="#1B1C1E" fill-rule="nonzero"></path>
        <g id="Kanit--0.5-Copy" transform="translate(111.000000, 13.000000)" fill="#F48067" fill-rule="nonzero">
            <polygon id="Path" points="0 14.828 0 0.66 3.542 0.66 3.542 6.16 8.426 0.66 12.474 0.66 7.414 6.446 12.782 14.828 8.998 14.828 5.214 8.712 3.542 10.538 3.542 14.828"></polygon>
            <path d="M17.748,15.048 C16.604,15.048 15.7826667,14.7986667 15.284,14.3 C14.7853333,13.8013333 14.536,13.002 14.536,11.902 L14.536,0 L18.078,0 L18.078,11.55 C18.078,11.8873333 18.1476667,12.1183333 18.287,12.243 C18.4263333,12.3676667 18.6353333,12.43 18.914,12.43 C19.31,12.43 19.662,12.3786667 19.97,12.276 L19.97,14.674 C19.6326667,14.806 19.299,14.9013333 18.969,14.96 C18.639,15.0186667 18.232,15.048 17.748,15.048 Z" id="Path"></path>
            <path d="M21.746,2.75 L21.746,0.088 L25.596,0.088 L25.596,2.75 L21.746,2.75 Z M22.032,14.828 L22.032,7.018 L20.492,7.018 L20.8,4.4 L25.574,4.4 L25.574,14.828 L22.032,14.828 Z" id="Shape"></path>
            <path d="M33.928,15.048 C32.1093333,15.048 30.65,14.597 29.55,13.695 C28.45,12.793 27.9,11.4326667 27.9,9.614 C27.9,7.95666667 28.3546667,6.63666667 29.264,5.654 C30.1733333,4.67133333 31.5373333,4.18 33.356,4.18 C35.0133333,4.18 36.2966667,4.60533333 37.206,5.456 C38.1153333,6.30666667 38.57,7.45066667 38.57,8.888 L38.57,10.758 L31.178,10.758 C31.3393333,11.4473333 31.717,11.9276667 32.311,12.199 C32.905,12.4703333 33.7153333,12.606 34.742,12.606 C35.314,12.606 35.897,12.5546667 36.491,12.452 C37.085,12.3493333 37.58,12.2173333 37.976,12.056 L37.976,14.366 C37.4773333,14.6006667 36.8833333,14.773 36.194,14.883 C35.5046667,14.993 34.7493333,15.048 33.928,15.048 Z M31.178,8.712 L35.49,8.712 L35.49,8.25 C35.49,7.73666667 35.336,7.32966667 35.028,7.029 C34.72,6.72833333 34.1993333,6.578 33.466,6.578 C32.6153333,6.578 32.0213333,6.75033333 31.684,7.095 C31.3466667,7.43966667 31.178,7.97866667 31.178,8.712 Z" id="Shape"></path>
            <path d="M40.874,14.828 L40.874,4.4 L44.174,4.4 L44.284,5.302 C44.7093333,5.00866667 45.2446667,4.74833333 45.89,4.521 C46.5353333,4.29366667 47.2246667,4.18 47.958,4.18 C49.3073333,4.18 50.29,4.50266667 50.906,5.148 C51.522,5.79333333 51.83,6.79066667 51.83,8.14 L51.83,14.828 L48.288,14.828 L48.288,8.426 C48.288,7.83933333 48.1633333,7.42133333 47.914,7.172 C47.6646667,6.92266667 47.2173333,6.798 46.572,6.798 C46.1906667,6.798 45.802,6.886 45.406,7.062 C45.01,7.238 44.68,7.458 44.416,7.722 L44.416,14.828 L40.874,14.828 Z" id="Path"></path>
            <path d="M58.754,15.048 C57.4633333,15.048 56.5136667,14.718 55.905,14.058 C55.2963333,13.398 54.992,12.4886667 54.992,11.33 L54.992,7.084 L53.584,7.084 L53.584,4.4 L54.992,4.4 L54.992,2.222 L58.534,1.276 L58.534,4.4 L61.064,4.4 L60.91,7.084 L58.534,7.084 L58.534,11.088 C58.534,11.5866667 58.6586667,11.935 58.908,12.133 C59.1573333,12.331 59.5313333,12.43 60.03,12.43 C60.4553333,12.43 60.888,12.3566667 61.328,12.21 L61.328,14.608 C60.6386667,14.9013333 59.7806667,15.048 58.754,15.048 Z" id="Path"></path>
        </g>
    </g>
</svg>