<svg width="22" height="22" xmlns="http://www.w3.org/2000/svg"><g fill="#F48067" fill-rule="nonzero"><path d="M18.682 1.548h-1.495V.936A.94.94 0 0 0 16.253 0a.94.94 0 0 0-.934.936v.607H6.631V.936A.94.94 0 0 0 5.698 0a.94.94 0 0 0-.934.936v.607H3.318A3.337 3.337 0 0 0 0 4.868v13.807A3.334 3.334 0 0 0 3.318 22h15.32c1.822 0 3.317-1.498 3.362-3.275V4.868a3.33 3.33 0 0 0-3.318-3.32Zm1.45 17.127a1.46 1.46 0 0 1-1.45 1.453H3.318a1.46 1.46 0 0 1-1.45-1.453V4.823a1.46 1.46 0 0 1 1.45-1.453h1.45v.607a.94.94 0 0 0 .934.936c.512 0 .934-.374.934-.89v-.604h8.688v.563a.94.94 0 0 0 .934.935c.466 0 .889-.373.933-.89v-.608h1.496c.794 0 1.45.657 1.45 1.453v13.803h-.005Z"/><path d="M5.792 8.287H4.669a.94.94 0 0 0-.933.936.94.94 0 0 0 .933.936h1.123c.467 0 .889-.423.934-.936a.937.937 0 0 0-.934-.936ZM17.33 8.287h-1.122a.94.94 0 0 0-.934.936.94.94 0 0 0 .934.936h1.123c.467 0 .889-.423.933-.936a.937.937 0 0 0-.933-.936ZM11.539 8.287h-1.123a.94.94 0 0 0-.934.936.94.94 0 0 0 .934.936h1.123a.94.94 0 0 0 .934-.936.937.937 0 0 0-.934-.936ZM5.792 12.17H4.669a.94.94 0 0 0-.933.936.94.94 0 0 0 .933.935h1.123c.467 0 .889-.373.934-.935a.94.94 0 0 0-.934-.936ZM17.33 12.17h-1.122a.94.94 0 0 0-.934.936.94.94 0 0 0 .934.935h1.123c.467 0 .889-.373.933-.935a.94.94 0 0 0-.933-.936ZM11.539 12.17h-1.123a.94.94 0 0 0-.934.936.94.94 0 0 0 .934.935h1.123c.512 0 .934-.373.934-.935a.94.94 0 0 0-.934-.936ZM5.792 16.102H4.669a.94.94 0 0 0-.933.936.94.94 0 0 0 .933.935h1.123c.467 0 .889-.422.934-.935a.94.94 0 0 0-.934-.936ZM17.33 16.102h-1.122a.94.94 0 0 0-.934.936.94.94 0 0 0 .934.935h1.123c.467 0 .889-.422.933-.935a.94.94 0 0 0-.933-.936ZM11.539 16.102h-1.123a.94.94 0 0 0-.934.936.94.94 0 0 0 .934.935h1.123a.94.94 0 0 0 .934-.935.94.94 0 0 0-.934-.936Z"/></g></svg>