<svg width="30" height="29" xmlns="http://www.w3.org/2000/svg"><path d="M29.723 13.085 15.605.295a.397.397 0 0 0-.08-.063.827.827 0 0 0-1.13-.019L.279 13.003a.856.856 0 0 0-.068 1.194.83.83 0 0 0 1.179.069l2.542-2.307v14.916c0 1.169.938 2.125 2.098 2.125h4.455c1.086 0 1.968-.894 1.968-1.994v-7.583c0-.169.136-.306.303-.306h4.498c.166 0 .302.137.302.306v7.583c0 1.1.882 1.994 1.968 1.994h4.455c1.173 0 2.098-1.169 2.098-2.663V12.04l2.543 2.307a.83.83 0 0 0 1.179-.069.869.869 0 0 0-.075-1.193Zm-5.319 4.17v9.07c0 .606-.296.975-.432.975h-4.455a.305.305 0 0 1-.302-.307v-7.57c0-1.1-.882-1.994-1.968-1.994h-4.499c-1.086 0-1.968.894-1.968 1.994v7.583a.305.305 0 0 1-.302.306H6.022a.436.436 0 0 1-.431-.437V10.447l9.366-8.477 9.447 8.558v6.726Z" fill="#F48067" fill-rule="nonzero"/></svg>