<?xml version="1.0" encoding="UTF-8"?>
<svg width="64px" height="64px" viewBox="0 0 64 64" version="1.1" xmlns="http://www.w3.org/2000/svg" xmlns:xlink="http://www.w3.org/1999/xlink">
    <title>Favicon</title>
    <g id="Favicon" stroke="none" stroke-width="1" fill="none" fill-rule="evenodd">
        <path d="M30.1639657,0.735646363 C31.1904377,-0.245215454 32.8100845,-0.245215454 33.8362028,0.735646363 L33.8362028,0.735646363 L63.1829736,28.7770865 C63.9650307,29.5239231 64.2122753,30.6693779 63.80869,31.6706817 C63.404751,32.672338 62.4302747,33.328243 61.3472087,33.328243 L61.3472087,33.328243 L58.1305525,33.328243 L58.1305525,61.3566426 C58.1305525,62.8168332 56.9427879,64 55.4777131,64 L55.4777131,64 L8.52245538,64 C7.0573806,64 5.86961596,62.8168332 5.86961596,61.3566426 L5.86961596,61.3566426 L5.86961596,33.328243 L2.65295974,33.328243 C1.56989383,33.328243 0.595417487,32.672338 0.191478471,31.6706817 C-0.212460544,30.6693779 0.0351378017,29.5239231 0.816841151,28.7770865 L0.816841151,28.7770865 Z M24.5270365,12 C24.520297,12.0743703 24.4982759,12.1453707 24.4932605,12.2180953 C24.4831512,12.1453707 24.4644999,12.0743703 24.4577603,12 L24.4577603,12.4378363 C24.0824622,15.597279 22.9752191,18.3678648 21.4150164,20.4234304 C19.3679214,21.9819926 16.595621,23.0909636 13.4378348,23.4679087 L13,23.4679087 C13.0777398,23.4730026 13.1453702,23.4898515 13.2180945,23.5016849 C13.1453702,23.5101485 13.0778181,23.5253517 13,23.5320913 L13.4394805,23.5320913 C16.5955426,23.9090364 19.3678431,25.0162833 21.4216776,26.5748456 C22.9819586,28.6321352 24.0892017,31.402721 24.4644215,34.5621637 L24.4644215,35 C24.4711611,34.9256297 24.4898123,34.8546293 24.4999216,34.780259 C24.5066612,34.8529836 24.5269581,34.9239057 24.5336977,35 L24.5336977,34.5621637 C24.9089958,31.4044451 26.0162389,28.6321352 27.5764416,26.5748456 C29.6320002,25.0162833 32.4026549,23.9090364 35.5603628,23.5354611 L36,23.5338153 C35.9222602,23.5270758 35.8546298,23.5101485 35.7819055,23.5016849 C35.8511816,23.4881274 35.9188121,23.4729242 35.9966302,23.4679087 L35.5537016,23.4679087 C32.3993635,23.0909636 29.625339,21.9837167 27.5697804,20.4234304 C26.0094994,18.3695105 24.9022563,15.5972006 24.5270365,12.4378363 L24.5270365,12 Z" id="Combined-Shape" fill="#F48067" fill-rule="nonzero"></path>
    </g>
</svg>